<svg xmlns="http://www.w3.org/2000/svg" width="23.832" height="27.034" viewBox="0 0 23.832 27.034">
  <path id="Path_52" data-name="Path 52" d="M86.179,14.4a.261.261,0,0,0-.251.284v2.852a.27.27,0,0,0,.243.3.289.289,0,0,0,.246-.287V14.687A.249.249,0,0,0,86.179,14.4Zm1.062,0a.247.247,0,0,0-.237.279v2.861a.273.273,0,0,0,.254.3.266.266,0,0,0,.24-.3V14.679A.261.261,0,0,0,87.241,14.4Zm4.5,4.839a.741.741,0,0,0-.817-.819h-.3v-3.23c0-1.948-.477-2.45-2.546-2.45H86.518a2.794,2.794,0,0,0-2.041.488l-.011.011a2.637,2.637,0,0,0-.593,1.95v3.233h-.392a.767.767,0,0,0-.786.786l.011,5.313a3.28,3.28,0,0,0,.977,2.3,3.01,3.01,0,0,0,2.132.908h.6v9.3h1.666v-9.3h.461a3.335,3.335,0,0,0,2.265-.949,3.156,3.156,0,0,0,1.021-2.248Zm-6.7-4.055a2.478,2.478,0,0,1,.21-1.175l0,0a2.656,2.656,0,0,1,1.258-.19h1.567c.248,0,1.092.006,1.283.2.138.138.088.811.088,1.222v3.183H85.048Zm5.388,9.666a1.325,1.325,0,0,1-.455,1,1.722,1.722,0,0,1-1.139.5H85.525a1.4,1.4,0,0,1-.977-.433,1.666,1.666,0,0,1-.48-1.167V19.7h6.367v5.156Zm-2.1-10.45a.253.253,0,0,0-.248.276V17.55a.245.245,0,1,0,.483-.006V14.681C88.568,14.527,88.485,14.4,88.334,14.4ZM78.19,16.367h-.2V10.883c0-.541-.276-.883-.783-.883H69.768a.767.767,0,0,0-.786.786l.008,5.581h-.2a.767.767,0,0,0-.786.786l.011,7.371a3.28,3.28,0,0,0,.977,2.3,3.01,3.01,0,0,0,2.132.908H72.7v9.3h1.669v-9.3h1.44a3.335,3.335,0,0,0,2.265-.949,2.887,2.887,0,0,0,.9-2.185V17.25C78.976,16.706,78.7,16.367,78.19,16.367Zm-7.542-4.8h5.779v4.8H70.648ZM77.407,24.56a1.325,1.325,0,0,1-.455,1,1.722,1.722,0,0,1-1.139.5H71.125a1.4,1.4,0,0,1-.977-.433,1.666,1.666,0,0,1-.48-1.167V17.934h7.738V24.56Z" transform="translate(-68 -10)" fill="#555"/>
</svg>
